<?xml version="1.0" encoding="utf-8"?>
<!-- Generator: Adobe Illustrator 25.0.1, SVG Export Plug-In . SVG Version: 6.00 Build 0)  -->
<svg version="1.1" id="Layer_1" xmlns="http://www.w3.org/2000/svg" xmlns:xlink="http://www.w3.org/1999/xlink" x="0px" y="0px"
	 viewBox="0 0 2000 2000" style="enable-background:new 0 0 2000 2000;" xml:space="preserve">
<style type="text/css">
	.st0{fill:#FFFFFF;}
	.st1{fill:#262626;}
	.st2{fill:#3F51B5;}
</style>
<g>
	<g>
		<g>
			<path class="st0" d="M1188.87,1102.66c-0.08,0.33-0.18,0.64-0.26,0.97c-11.91-87.95-128.34-71.82-188.6,61.15
				c-79.84-138.66-189.61-150.53-189.61-45.81C810.39,1223.68,1000,1500,1000,1500s189.61-276.32,189.61-381.03
				c0-1.91-0.05-3.76-0.14-5.59C1189.36,1109.78,1189.17,1106.21,1188.87,1102.66z"/>
			<path class="st0" d="M813.27,925.92c-1.87,9.29-2.88,17.84-2.88,25.47c0,100.26,115.56,95.09,181.17-28.61
				c3.85-7.25,14.09-7.52,18.51-0.61c78.68,122.85,179.54,129.6,179.54,29.22c0-7.64-1.01-16.19-2.88-25.47
				C1146.05,723.77,853.96,723.77,813.27,925.92z"/>
		</g>
		<path class="st0" d="M681.65,683.86c-36.17,10.91-50.89,62.94-32.92,116.19c18,53.26,61.89,87.6,98.05,76.68
			c36.15-10.91,50.91-62.92,32.92-116.18C761.72,707.29,717.81,672.96,681.65,683.86z"/>
		<path class="st0" d="M913.43,703.08c36.18-10.98,50.99-63.17,33.05-116.56c-17.93-53.41-61.82-87.8-98.01-76.81
			c-36.16,10.99-50.96,63.16-33.04,116.57C833.37,679.69,877.23,714.08,913.43,703.08z"/>
		<path class="st0" d="M1316.34,686.9c-36.68-11.75-80.11,21.61-96.98,74.45c-16.9,52.85-0.84,105.2,35.85,116.92
			c36.69,11.73,80.11-21.61,97.01-74.46C1369.1,750.94,1353.03,698.6,1316.34,686.9z"/>
		<path class="st0" d="M1144.02,513.96c-37.03-11.83-80.11,19.46-96.24,69.88c-16.09,50.43,0.89,100.91,37.91,112.73
			c37.03,11.84,80.11-19.45,96.22-69.89C1198,576.25,1181.05,525.8,1144.02,513.96z"/>
	</g>
</g>
</svg>
