<?xml version="1.0" encoding="UTF-8" standalone="no"?>
<svg
   xmlns:dc="http://purl.org/dc/elements/1.1/"
   xmlns:cc="http://creativecommons.org/ns#"
   xmlns:rdf="http://www.w3.org/1999/02/22-rdf-syntax-ns#"
   xmlns:svg="http://www.w3.org/2000/svg"
   xmlns="http://www.w3.org/2000/svg"
   xmlns:sodipodi="http://sodipodi.sourceforge.net/DTD/sodipodi-0.dtd"
   xmlns:inkscape="http://www.inkscape.org/namespaces/inkscape"
   inkscape:version="1.0 (4035a4fb49, 2020-05-01)"
   sodipodi:docname="logo.svg"
   xml:space="preserve"
   style="enable-background:new 0 0 2000 2000;"
   viewBox="0 0 2000 2000"
   y="0px"
   x="0px"
   id="Layer_1"
   version="1.1"><metadata
   id="metadata33"><rdf:RDF><cc:Work
       rdf:about=""><dc:format>image/svg+xml</dc:format><dc:type
         rdf:resource="http://purl.org/dc/dcmitype/StillImage" /><dc:title></dc:title></cc:Work></rdf:RDF></metadata><defs
   id="defs31" /><sodipodi:namedview
   inkscape:current-layer="Layer_1"
   inkscape:window-maximized="1"
   inkscape:window-y="-9"
   inkscape:window-x="-9"
   inkscape:cy="1000"
   inkscape:cx="1000"
   inkscape:zoom="0.3675"
   showborder="false"
   showgrid="false"
   id="namedview29"
   inkscape:window-height="1001"
   inkscape:window-width="1920"
   inkscape:pageshadow="2"
   inkscape:pageopacity="0"
   guidetolerance="10"
   gridtolerance="10"
   objecttolerance="10"
   borderopacity="1"
   bordercolor="#666666"
   pagecolor="#ffffff" />
<style
   id="style2"
   type="text/css">
	.st0{fill:#FFFFFF;}
	.st1{fill:#262626;}
	.st2{fill:#3F51B5;}
	.st3{fill:none;}
	.st4{font-family:'ChelaOne-Regular';}
	.st5{font-size:224.276px;}
</style>


<g
   transform="matrix(1.3533004,0,0,1.3533004,-421.04822,-374.00687)"
   id="g870"><g
     id="g18">
	<g
   id="g8">
		<path
   class="st2"
   d="m 630.08,1062.29 c -0.05,0.19 -0.11,0.38 -0.16,0.57 -7.05,-52.03 -75.92,-42.49 -111.57,36.17 -47.23,-82.02 -112.16,-89.05 -112.16,-27.1 0,61.94 112.16,225.39 112.16,225.39 0,0 112.16,-163.45 112.16,-225.39 0,-1.13 -0.03,-2.22 -0.08,-3.31 -0.06,-2.12 -0.17,-4.23 -0.35,-6.33 z"
   id="path4" />
		<path
   class="st2"
   d="m 407.9,957.74 c -1.11,5.49 -1.7,10.55 -1.7,15.07 0,59.31 68.36,56.25 107.17,-16.93 2.28,-4.29 8.33,-4.45 10.95,-0.36 46.54,72.67 106.2,76.66 106.2,17.28 0,-4.52 -0.6,-9.57 -1.7,-15.07 C 604.75,838.16 431.97,838.16 407.9,957.74 Z"
   id="path6" />
	</g>
	<path
   class="st2"
   d="m 330.04,814.56 c -21.4,6.46 -30.1,37.23 -19.47,68.73 10.65,31.51 36.61,51.82 58,45.36 21.38,-6.45 30.11,-37.22 19.47,-68.72 -10.63,-31.52 -36.61,-51.82 -58,-45.37 z"
   id="path10" />
	<path
   class="st2"
   d="m 467.15,825.93 c 21.4,-6.5 30.16,-37.37 19.55,-68.95 -10.6,-31.59 -36.57,-51.94 -57.98,-45.43 -21.39,6.5 -30.15,37.36 -19.55,68.95 10.62,31.59 36.56,51.93 57.98,45.43 z"
   id="path12" />
	<path
   class="st2"
   d="m 705.48,816.35 c -21.7,-6.95 -47.39,12.78 -57.37,44.04 -9.99,31.26 -0.49,62.23 21.21,69.16 21.7,6.94 47.39,-12.79 57.38,-44.05 9.99,-31.26 0.49,-62.22 -21.22,-69.15 z"
   id="path14" />
	<path
   class="st2"
   d="m 603.55,714.05 c -21.9,-7 -47.39,11.51 -56.93,41.34 -9.52,29.83 0.52,59.69 22.43,66.69 21.9,7 47.39,-11.51 56.92,-41.34 9.51,-29.84 -0.51,-59.68 -22.42,-66.69 z"
   id="path16" />
</g><rect
     x="790.40997"
     y="871.60999"
     class="st3"
     width="1064.15"
     height="535.27002"
     id="rect20" /><text
     transform="translate(790.4084,1029.2705)"
     id="text26"><tspan
       x="0"
       y="0"
       class="st1 st4 st5"
       id="tspan22">një Shtëpi </tspan><tspan
       x="0"
       y="201.85001"
       class="st1 st4 st5"
       id="tspan24">për Kafshët</tspan></text></g>
</svg>
