<?xml version="1.0" encoding="utf-8"?>
<!-- Generator: Adobe Illustrator 25.0.1, SVG Export Plug-In . SVG Version: 6.00 Build 0)  -->
<svg version="1.1" id="Layer_1" xmlns="http://www.w3.org/2000/svg" xmlns:xlink="http://www.w3.org/1999/xlink" x="0px" y="0px"
	 viewBox="0 0 2000 2000" style="enable-background:new 0 0 2000 2000;" xml:space="preserve">
<style type="text/css">
	.st0{fill:#FFFFFF;}
	.st1{fill:#262626;}
	.st2{fill:#3F51B5;}
	.st3{fill:none;}
	.st4{font-family:'ChelaOne-Regular';}
	.st5{font-size:224.276px;}
</style>
<g>
	<g>
		<g>
			<path class="st2" d="M1114.25,761.7c-0.05,0.19-0.11,0.38-0.16,0.57c-7.05-52.03-75.92-42.49-111.57,36.17
				c-47.23-82.02-112.16-89.05-112.16-27.1c0,61.94,112.16,225.39,112.16,225.39s112.16-163.45,112.16-225.39
				c0-1.13-0.03-2.22-0.08-3.31C1114.54,765.91,1114.43,763.8,1114.25,761.7z"/>
			<path class="st2" d="M892.07,657.15c-1.11,5.49-1.7,10.55-1.7,15.07c0,59.31,68.36,56.25,107.17-16.93
				c2.28-4.29,8.33-4.45,10.95-0.36c46.54,72.67,106.2,76.66,106.2,17.28c0-4.52-0.6-9.57-1.7-15.07
				C1088.92,537.57,916.14,537.57,892.07,657.15z"/>
		</g>
		<path class="st2" d="M814.22,513.97c-21.4,6.46-30.1,37.23-19.47,68.73c10.65,31.51,36.61,51.82,58,45.36
			c21.38-6.45,30.11-37.22,19.47-68.72C861.58,527.82,835.6,507.52,814.22,513.97z"/>
		<path class="st2" d="M951.32,525.34c21.4-6.5,30.16-37.37,19.55-68.95c-10.6-31.59-36.57-51.94-57.98-45.43
			c-21.39,6.5-30.15,37.36-19.55,68.95C903.96,511.5,929.91,531.84,951.32,525.34z"/>
		<path class="st2" d="M1189.66,515.76c-21.7-6.95-47.39,12.78-57.37,44.04c-9.99,31.26-0.49,62.23,21.21,69.16
			c21.7,6.94,47.39-12.79,57.38-44.05C1220.87,553.65,1211.36,522.69,1189.66,515.76z"/>
		<path class="st2" d="M1087.72,413.46c-21.9-7-47.39,11.51-56.93,41.34c-9.52,29.83,0.52,59.69,22.43,66.69
			c21.9,7,47.39-11.51,56.92-41.34C1119.66,450.31,1109.63,420.47,1087.72,413.46z"/>
	</g>
	<rect x="498.12" y="1054.99" class="st3" width="1003.76" height="535.27"/>
	<text transform="matrix(1 0 0 1 581.8409 1212.6484)"><tspan x="0" y="0" class="st1 st4 st5">një Shtëpi </tspan><tspan x="-73.56" y="201.85" class="st1 st4 st5">për Kafshët</tspan></text>
</g>
</svg>
